<svg xmlns="http://www.w3.org/2000/svg" width="1200" height="500"><style>text{font-family:Arial;fill:#111827}.t{font-size:22px;font-weight:bold}.s{font-size:14px}.b{fill:#f8fafc;stroke:#64748b;stroke-width:2}.a{stroke:#334155;stroke-width:2}</style><text x="45" y="45" class="t">Commerce Operations — System Architecture</text><rect x="40" y="120" width="180" height="75" rx="10" class="b"/><text x="130" y="152" text-anchor="middle" class="t">Book Intake</text><text x="130" y="177" text-anchor="middle" class="s">photos + operator</text><rect x="280" y="120" width="180" height="75" rx="10" class="b"/><text x="370" y="152" text-anchor="middle" class="t">Laravel Core</text><text x="370" y="177" text-anchor="middle" class="s">catalog + workflows</text><rect x="520" y="65" width="170" height="65" rx="10" class="b"/><text x="605" y="105" text-anchor="middle" class="t">AI Pipeline</text><rect x="520" y="165" width="170" height="65" rx="10" class="b"/><text x="605" y="205" text-anchor="middle" class="t">Inventory</text><rect x="760" y="120" width="180" height="75" rx="10" class="b"/><text x="850" y="152" text-anchor="middle" class="t">Queues</text><text x="850" y="177" text-anchor="middle" class="s">sync + orders + AI</text><rect x="1000" y="75" width="160" height="65" rx="10" class="b"/><text x="1080" y="115" text-anchor="middle" class="t">Ozon</text><rect x="1000" y="180" width="160" height="65" rx="10" class="b"/><text x="1080" y="220" text-anchor="middle" class="t">Wildberries</text><rect x="520" y="330" width="170" height="70" rx="10" class="b"/><text x="605" y="360" text-anchor="middle" class="t">Reconciliation</text><text x="605" y="383" text-anchor="middle" class="s">audit + recovery</text><path d="M220 157H280M460 140L520 100M460 175L520 197M690 157H760M940 145L1000 108M940 175L1000 212M850 195V365H690" class="a"/></svg>